# xmcd CD database file
#
# Track frame offsets:
#	150
#	12987
#	27278
#	40049
#	53186
#	66703
#	80258
#	92112
#	106235
#	120357
#	131725
#	145551
#	157305
#	171804
#	185363
#	200364
#	212580
#	226577
#	241377
#	255481
#
# Disc length: 3596 seconds
#
# Revision: 0
# Processed by: cddbd v1.5.2PL0 Copyright (c) Steve Scherf et al.
# Submitted via: CDex 1.70beta2
#
DISCID=0a0e0a14
DTITLE=Teddy Wilson - Jazz Roads CD170 - Swing - Teddy Wilson Vol.3 (1937)
DYEAR=2006
DGENRE=Jazz
TTITLE0=He Ain't Got Rhythm
TTITLE1=This Year's Kisses
TTITLE2=Why Was I Born
TTITLE3=I Must Have That Man!
TTITLE4=The Mood That I'm In
TTITLE5=You Showed Me The Way
TTITLE6=Sentimental And Melancholy
TTITLE7=(This Is) My Last Affair
TTITLE8=Carelessly
TTITLE9=How Could You
TTITLE10=Moanin' Low
TTITLE11=Fine And Dandy
TTITLE12=There's A Lull In My Life
TTITLE13=It's Swell Of You
TTITLE14=How Am I To Know
TTITLE15=I'm Coming, Virginia
TTITLE16=Sun Showers
TTITLE17=Yours And Mine
TTITLE18=I'll Get By
TTITLE19=Mean To Me
EXTD=YEAR: 2006
EXTT0=
EXTT1=
EXTT2=
EXTT3=
EXTT4=
EXTT5=
EXTT6=
EXTT7=
EXTT8=
EXTT9=
EXTT10=
EXTT11=
EXTT12=
EXTT13=
EXTT14=
EXTT15=
EXTT16=
EXTT17=
EXTT18=
EXTT19=
PLAYORDER=
